<mxfile host="app.diagrams.net" agent="Mozilla/5.0 (X11; Linux x86_64) AppleWebKit/537.36 (KHTML, like Gecko) Chrome/138.0.0.0 Safari/537.36" version="28.1.1">
  <diagram name="SMTP Flow" id="Jnbh-NJeI82GfpX0YLuZ">
    <mxGraphModel dx="1188" dy="642" grid="1" gridSize="10" guides="1" tooltips="1" connect="1" arrows="1" fold="1" page="1" pageScale="1" pageWidth="827" pageHeight="1169" math="0" shadow="0">
      <root>
        <mxCell id="0" />
        <mxCell id="1" parent="0" />
        <mxCell id="pJ8NAPRmJXz7y9-A45Fp-12" value="Sender Client (MUA)" style="shape=rectangle;rounded=1;whiteSpace=wrap;html=1;fillColor=#ffffff;strokeColor=#000000;" vertex="1" parent="1">
          <mxGeometry x="40" y="200" width="180" height="60" as="geometry" />
        </mxCell>
        <mxCell id="pJ8NAPRmJXz7y9-A45Fp-13" value="ADN Mail Server (MSA/MTA)" style="shape=rectangle;rounded=1;whiteSpace=wrap;html=1;fillColor=#dae8fc;strokeColor=#6c8ebf;" vertex="1" parent="1">
          <mxGeometry x="270" y="525" width="220" height="60" as="geometry" />
        </mxCell>
        <mxCell id="pJ8NAPRmJXz7y9-A45Fp-14" value="DNS MX Lookup" style="shape=parallelogram;whiteSpace=wrap;html=1;fillColor=#ffe6cc;strokeColor=#d79b00;" vertex="1" parent="1">
          <mxGeometry x="490" y="150" width="160" height="50" as="geometry" />
        </mxCell>
        <mxCell id="pJ8NAPRmJXz7y9-A45Fp-15" value="Recipient MX (Inbound MTA)" style="shape=rectangle;rounded=1;whiteSpace=wrap;html=1;fillColor=#ffffff;strokeColor=#000000;" vertex="1" parent="1">
          <mxGeometry x="607" y="410" width="220" height="60" as="geometry" />
        </mxCell>
        <mxCell id="pJ8NAPRmJXz7y9-A45Fp-16" value="Recipient Mailbox (MDA)" style="shape=cylinder;whiteSpace=wrap;html=1;fillColor=#ffffff;strokeColor=#000000;" vertex="1" parent="1">
          <mxGeometry x="780" y="220" width="200" height="80" as="geometry" />
        </mxCell>
        <mxCell id="pJ8NAPRmJXz7y9-A45Fp-17" value="SMTP Submit (AUTH, MAIL FROM)" style="endArrow=block;html=1;" edge="1" parent="1" source="pJ8NAPRmJXz7y9-A45Fp-12" target="pJ8NAPRmJXz7y9-A45Fp-13">
          <mxGeometry relative="1" as="geometry" />
        </mxCell>
        <mxCell id="pJ8NAPRmJXz7y9-A45Fp-18" value="DNS Query" style="endArrow=open;dashed=1;strokeColor=#888888;" edge="1" parent="1" source="pJ8NAPRmJXz7y9-A45Fp-13" target="pJ8NAPRmJXz7y9-A45Fp-14">
          <mxGeometry relative="1" as="geometry" />
        </mxCell>
        <mxCell id="pJ8NAPRmJXz7y9-A45Fp-19" value="SMTP Relay (RCPT TO, DATA)" style="endArrow=block;html=1;" edge="1" parent="1" source="pJ8NAPRmJXz7y9-A45Fp-13" target="pJ8NAPRmJXz7y9-A45Fp-15">
          <mxGeometry relative="1" as="geometry" />
        </mxCell>
        <mxCell id="pJ8NAPRmJXz7y9-A45Fp-20" value="Local Delivery" style="endArrow=block;html=1;" edge="1" parent="1" source="pJ8NAPRmJXz7y9-A45Fp-15" target="pJ8NAPRmJXz7y9-A45Fp-16">
          <mxGeometry relative="1" as="geometry" />
        </mxCell>
        <mxCell id="pJ8NAPRmJXz7y9-A45Fp-21" value="550 5.1.1 User Unknown" style="endArrow=block;dashed=1;strokeColor=#ff0000;html=1;" edge="1" parent="1" source="pJ8NAPRmJXz7y9-A45Fp-15" target="pJ8NAPRmJXz7y9-A45Fp-13">
          <mxGeometry relative="1" as="geometry" />
        </mxCell>
        <mxCell id="pJ8NAPRmJXz7y9-A45Fp-22" value="DSN / NDR Bounce" style="endArrow=block;dashed=1;strokeColor=#ff0000;html=1;" edge="1" parent="1" source="pJ8NAPRmJXz7y9-A45Fp-13" target="pJ8NAPRmJXz7y9-A45Fp-12">
          <mxGeometry relative="1" as="geometry" />
        </mxCell>
      </root>
    </mxGraphModel>
  </diagram>
</mxfile>
